<svg width="1440" height="101" viewBox="0 0 1440 101" fill="none" xmlns="http://www.w3.org/2000/svg">
<g clip-path="url(#clip0_2_84)">
<path d="M202 30.8446C103.47 65.9112 0.172974 88.1668 -103.946 69.6335C-178.162 56.4335 -248.995 26.9557 -325.027 24.4446C-379.48 22.5531 -433.898 29.1425 -486.432 43.989C-540.346 59.3668 -591.124 75.7668 -647.654 76.2668C-703.643 76.7779 -759.308 66.7446 -813.168 51.6113C-835.016 45.4668 -856.627 38.4557 -878.032 30.8446C-935.937 10.3545 -996.76 -0.06989 -1058 0.000144348L-1058 100H382V0.000144348C320.749 -0.073596 259.915 10.3508 202 30.8446Z" fill="#005466"/>
</g>
<g clip-path="url(#clip1_2_84)">
<path d="M1641 30.8446C1542.47 65.9112 1439.17 88.1668 1335.05 69.6335C1260.84 56.4335 1190.01 26.9557 1113.97 24.4446C1059.52 22.5531 1005.1 29.1425 952.568 43.989C898.654 59.3668 847.876 75.7668 791.346 76.2668C735.357 76.7779 679.692 66.7446 625.832 51.6113C603.984 45.4668 582.373 38.4557 560.968 30.8446C503.063 10.3545 442.24 -0.06989 381 0.000144348L381 100H1821V0.000144348C1759.75 -0.073596 1698.91 10.3508 1641 30.8446Z" fill="#005466"/>
</g>
<defs>
<clipPath id="clip0_2_84">
<rect width="1440" height="100" fill="white" transform="translate(-1058)"/>
</clipPath>
<clipPath id="clip1_2_84">
<rect width="1440" height="100" fill="white" transform="translate(381)"/>
</clipPath>
</defs>
</svg>
